<?xml version="1.0" encoding="UTF-8" standalone="no"?>
<svg
   height="768"
   viewBox="0 0 270.93332 203.19999"
   width="1024"
   version="1.1"
   id="svg346"
   sodipodi:docname="gamepad.svg"
   inkscape:version="1.1 (c68e22c387, 2021-05-23)"
   xmlns:inkscape="http://www.inkscape.org/namespaces/inkscape"
   xmlns:sodipodi="http://sodipodi.sourceforge.net/DTD/sodipodi-0.dtd"
   xmlns="http://www.w3.org/2000/svg"
   xmlns:svg="http://www.w3.org/2000/svg">
  <defs
     id="defs350" />
  <sodipodi:namedview
     id="namedview348"
     pagecolor="#505050"
     bordercolor="#ffffff"
     borderopacity="1"
     inkscape:pageshadow="0"
     inkscape:pageopacity="0"
     inkscape:pagecheckerboard="1"
     showgrid="false"
     inkscape:zoom="0.97227182"
     inkscape:cx="361.01015"
     inkscape:cy="574.42784"
     inkscape:window-width="1366"
     inkscape:window-height="699"
     inkscape:window-x="0"
     inkscape:window-y="32"
     inkscape:window-maximized="1"
     inkscape:current-layer="svg346" />
  <path
     d="m45.338707 0h161.461673v203.19998h-161.461673z"
     fill="#3d3d3d"
     stroke-width=".490526"
     id="path2" />
  <path
     d="m0 34.609978h270.93332v133.979702h-270.93332z"
     fill="#808080"
     stroke-width=".685967"
     id="path4" />
  <path
     d="m239.66607 84.414444a16.933332 16.933332 0 0 1 -16.93333 16.933336 16.933332 16.933332 0 0 1 -16.93333-16.933336 16.933332 16.933332 0 0 1 16.93333-16.933332 16.933332 16.933332 0 0 1 16.93333 16.933332z"
     stroke-width=".214395"
     id="A"
     style="stroke:#ffffff;stroke-opacity:1;stroke-width:0.6979708;stroke-miterlimit:4;stroke-dasharray:none" />
  <path
     d="m191.8077 59.434196c-7.58889 1.50874-13.64254 11.757456-14.17867 24.00423-.59264 13.536841 6.76366 24.458694 15.14938 24.636174 2.51119.051 4.98469-.90188 7.2203-2.69777 7.68984-5.613417 2.61723-10.468122 1.83432-17.179592-.37921-3.454154-.15661-7.086239.6907-10.687053 1.60722-7.068202 3.48819-10.728438-1.9443-15.513554-2.01128-1.732959-4.29742-2.695808-6.69393-2.746808-.69169-.01473-1.3859.04689-2.0778.184361z"
     stroke-width=".313516"
     id="Use"
     style="stroke:#ffffff;stroke-opacity:1;stroke-width:0.6979708;stroke-miterlimit:4;stroke-dasharray:none" />
  <path
     d="m251.77526 57.676089c-.42022-7.725993-9.7097-15.168329-21.75753-17.431223-13.31694-2.501293-25.16945 3.236304-26.5312 11.512628-.40566 2.478733.18779 5.06214 1.64943 7.529276 4.46936 8.406487 9.99271 4.071505 16.74745 4.245708 3.47306.113147 7.03716.847223 10.48193 2.195305 6.76983 2.59077 10.12723 4.970522 15.63259.269433 2-1.74595 3.27652-3.872927 3.66597-6.238134.11237-.682654.1496-1.3786.11133-2.082996z"
     stroke-width=".313516"
     id="Top"
     style="stroke:#ffffff;stroke-opacity:1;stroke-width:0.6979708;stroke-miterlimit:4;stroke-dasharray:none" />
  <path
     d="M 69.295872,71.423889 A 24.248714,24.248714 0 0 1 45.047157,95.672604 24.248714,24.248714 0 0 1 20.798443,71.423889 24.248714,24.248714 0 0 1 45.047157,47.175175 24.248714,24.248714 0 0 1 69.295872,71.423889 Z"
     stroke-width=".307016"
     id="Dir"
     style="stroke:#ffffff;stroke-width:0.697971;stroke-miterlimit:4;stroke-dasharray:none;stroke-opacity:1" />
  <path
     d="m59.45949 71.423889a14.412291 14.412291 0 0 1 -14.412291 14.412291 14.412291 14.412291 0 0 1 -14.41229-14.412291 14.412291 14.412291 0 0 1 14.41229-14.41229 14.412291 14.412291 0 0 1 14.412291 14.41229z"
     fill="#1a1a1a"
     stroke-width=".182475"
     id="path14" />
  <path
     d="m837.41797 375.72461-4.16016 14.92187h8.32031zm-2.38281-3.47656h4.78515l8.92578 29.16015h-4.08203l-2.14844-7.59765h-10.21484l-2.10937 7.59765h-4.08204z"
     fill="#fff"
     transform="matrix(.55432696 0 0 .55432696 -241.8998 -130.37576)"
     id="path16" />
  <path
     d="m258.06489 110.11012a11.50985 11.50985 0 0 1 -11.50985 11.50985 11.50985 11.50985 0 0 1 -11.50985-11.50985 11.50985 11.50985 0 0 1 11.50985-11.509847 11.50985 11.50985 0 0 1 11.50985 11.509847z"
     stroke-width=".145728"
     id="B"
     style="stroke:#ffffff;stroke-opacity:1;stroke-width:0.6979708;stroke-miterlimit:4;stroke-dasharray:none" />
  <path
     d="m832.59375 387.48242v10.6836h4.66797q3.4375 0 4.90234-1.19141 1.46485-1.21094 1.46485-3.96484 0-2.85157-1.54297-4.17969-1.54297-1.34766-4.82422-1.34766zm0-11.99219v8.78907h4.58984q2.85157 0 4.1211-1.09375 1.28906-1.09375 1.28906-3.53516 0-2.20703-1.26953-3.18359-1.25-.97657-4.14063-.97657zm-3.96484-3.24218h8.63281q4.47265 0 6.89453 1.93359 2.42187 1.93359 2.42187 5.46875 0 2.67578-1.28906 4.21875-1.26953 1.54297-3.82812 1.93359 2.87109.42969 4.49218 2.46094 1.64063 2.01172 1.64063 5.13672 0 3.96484-2.59766 5.99609-2.59765 2.01172-7.73437 2.01172h-8.63281z"
     fill="#fff"
     transform="matrix(.37678466 0 0 .37678466 -69.262912 -35.886129)"
     id="path20" />
  <g
     fill="#fff"
     transform="matrix(.37678466 0 0 .37678466 -132.51711 -59.922953)"
     id="g28">
    <path
       d="m827.80607 386.40923v-15.1415h3.341v16.65565q0 1.79394.0987 2.56747.0987.75708.34562 1.16853.52666.97103 1.51415 1.46478 1.00395.49374 2.41935.49374 1.43186 0 2.41935-.49374.98749-.49375 1.53061-1.46478.24687-.41145.34562-1.16853.0987-.75707.0987-2.53455v-16.68857h3.32455v15.1415q0 3.76892-.47729 5.36536-.46083 1.57998-1.6129 2.61685-1.08624.97103-2.48518 1.44831-1.39894.47729-3.14351.47729-1.7281 0-3.12705-.47729-1.39894-.47728-2.50164-1.44831-1.13561-1.02041-1.6129-2.63331-.47728-1.62936-.47728-5.3489z"
       id="path22" />
    <path
       d="m861.69341 378.04849v2.96247q-1.3002-.75708-2.61685-1.13562-1.31665-.37853-2.68268-.37853-2.05727 0-3.07767.67478-1.00395.65833-1.00395 2.02435 0 1.23436.75707 1.84332.75708.60895 3.76892 1.18498l1.2179.23042q2.25477.42791 3.40684 1.71165 1.16853 1.28373 1.16853 3.341 0 2.73205-1.94206 4.27912-1.94206 1.53061-5.39828 1.53061-1.36602 0-2.86371-.29625-1.4977-.27979-3.24226-.85582v-3.12705q1.69519.87228 3.24226 1.31665 1.54706.42791 2.92955.42791 2.00789 0 3.11059-.80645 1.10269-.8229 1.10269-2.28768 0-2.10664-4.03224-2.91309l-.13167-.0329-1.13561-.23041q-2.61685-.51021-3.81829-1.71165-1.20145-1.2179-1.20145-3.30809 0-2.64976 1.79394-4.08162 1.79394-1.44832 5.11849-1.44832 1.48123 0 2.84726.27979 1.36602.26333 2.68268.80645z"
       id="path24" />
    <path
       d="m884.27399 385.86611v1.48124h-13.11715v.0987q0 3.01185 1.56353 4.65766 1.57998 1.64582 4.4437 1.64582 1.44832 0 3.0283-.46083 1.57998-.46083 3.37392-1.39894v3.01184q-1.7281.7077-3.341 1.05332-1.59644.36208-3.09414.36208-4.29557 0-6.71492-2.56747-2.41935-2.58393-2.41935-7.10993 0-4.41078 2.36997-7.04409 2.36998-2.6333 6.31993-2.6333 3.52205 0 5.5464 2.38643 2.04081 2.38643 2.04081 6.51743zm-3.0283-.88874q-.0658-2.66622-1.26727-4.0487-1.18499-1.39895-3.4233-1.39895-2.18894 0-3.60434 1.44832-1.4154 1.44832-1.67873 4.01579z"
       id="path26" />
  </g>
  <g
     fill="#fff"
     transform="matrix(.37678466 0 0 .37678466 -95.727557 -92.170348)"
     id="g36">
    <path
       d="m826.16025 371.26773h18.74584v2.79789h-7.68596v21.77413h-3.341v-21.77413h-7.71888z"
       id="path30" />
    <path
       d="m855.81785 379.52972q-2.30415 0-3.48913 1.79394-1.18499 1.79394-1.18499 5.31598 0 3.50559 1.18499 5.31599 1.18498 1.79394 3.48913 1.79394 2.3206 0 3.50558-1.79394 1.18499-1.8104 1.18499-5.31599 0-3.52204-1.18499-5.31598-1.18498-1.79394-3.50558-1.79394zm0-2.56747q3.83475 0 5.8591 2.48518 2.04081 2.48518 2.04081 7.19221 0 4.72349-2.02435 7.20868-2.02436 2.46872-5.87556 2.46872-3.83475 0-5.85911-2.46872-2.02435-2.48519-2.02435-7.20868 0-4.70703 2.02435-7.19221 2.02436-2.48518 5.85911-2.48518z"
       id="path32" />
    <path
       d="m872.14433 393.51915v9.33178h-3.04475v-25.44431h3.04475v2.35352q.75708-1.36603 2.0079-2.07373 1.26728-.72416 2.91309-.72416 3.34101 0 5.2337 2.58393 1.90914 2.58393 1.90914 7.1593 0 4.49307-1.90914 7.06055-1.90915 2.55101-5.2337 2.55101-1.67873 0-2.94601-.7077-1.25082-.72416-1.97498-2.09019zm8.88741-6.87951q0-3.52204-1.11916-5.31598-1.10269-1.79394-3.29163-1.79394-2.20539 0-3.341 1.8104-1.13562 1.79394-1.13562 5.29952 0 3.48913 1.13562 5.29953 1.13561 1.8104 3.341 1.8104 2.18894 0 3.29163-1.79394 1.11916-1.79394 1.11916-5.31599z"
       id="path34" />
  </g>
  <path
     d="m117.18812 54.638458a11.50985 11.50985 0 0 1 -11.50985 11.50985 11.50985 11.50985 0 0 1 -11.509851-11.50985 11.50985 11.50985 0 0 1 11.509851-11.509849 11.50985 11.50985 0 0 1 11.50985 11.509849z"
     stroke-width=".145728"
     id="Menu"
     style="stroke:#ffffff;stroke-opacity:1;stroke-width:0.6979708;stroke-miterlimit:4;stroke-dasharray:none" />
  <path
     d="m150.88584 73.688469a16.212313 16.212313 0 0 1 -16.21232 16.212313 16.212313 16.212313 0 0 1 -16.21231-16.212313 16.212313 16.212313 0 0 1 16.21231-16.212313 16.212313 16.212313 0 0 1 16.21232 16.212313z"
     stroke-width=".205267"
     id="Home"
     style="fill:#000000;fill-opacity:1;stroke:#ffffff;stroke-opacity:1;stroke-width:0.6979708;stroke-miterlimit:4;stroke-dasharray:none" />
  <path
     d="m175.19707 54.638458a11.50985 11.50985 0 0 1 -11.50984 11.50985 11.50985 11.50985 0 0 1 -11.50985-11.50985 11.50985 11.50985 0 0 1 11.50985-11.509849 11.50985 11.50985 0 0 1 11.50984 11.509849z"
     stroke-width=".145728"
     id="Play"
     style="stroke:#ffffff;stroke-opacity:1;stroke-width:0.6979708;stroke-miterlimit:4;stroke-dasharray:none" />
  <g
     fill="#fff"
     transform="matrix(.16819038 0 0 .16819038 16.376049 -10.663575)"
     id="g52">
    <path
       d="m833.17969 375.49023v10.95704h4.57031q2.73437 0 4.25781-1.44532 1.54297-1.44531 1.54297-4.04297 0-2.59765-1.52344-4.02343-1.52343-1.44532-4.27734-1.44532zm-3.94532-3.24218h8.51563q4.88281 0 7.40234 2.22656 2.51953 2.20703 2.51953 6.48437 0 4.31641-2.51953 6.52344-2.5 2.20703-7.40234 2.20703h-4.57031v11.71875h-3.94532z"
       id="path44" />
    <path
       d="m861.94922 393.47852q0 2.42187.8789 3.65234.89844 1.23047 2.63672 1.23047h4.19922v3.04687h-4.55078q-3.22266 0-5-2.07031-1.75781-2.07031-1.75781-5.85937v-19.86329h-5.76172v-2.8125h9.35547z"
       id="path46" />
    <path
       d="m887.26172 390.41211h-1.19141q-3.14453 0-4.74609 1.11328-1.58203 1.09375-1.58203 3.28125 0 1.97266 1.1914 3.06641 1.19141 1.09375 3.30078 1.09375 2.96875 0 4.66797-2.05078 1.69922-2.07032 1.71875-5.70313v-.80078zm6.97265-1.48438v12.48047h-3.61328v-3.24218q-1.15234 1.95312-2.91015 2.89062-1.73828.91797-4.23828.91797-3.33985 0-5.33204-1.875-1.99218-1.89453-1.99218-5.05859 0-3.65235 2.4414-5.54688 2.46094-1.89453 7.20703-1.89453h4.82422v-.56641q-.0195-2.61718-1.32812-3.78906-1.3086-1.19141-4.17969-1.19141-1.83594 0-3.71094.52735-1.875.52734-3.65234 1.54297v-3.59375q1.99219-.76172 3.80859-1.13282 1.83594-.39062 3.55469-.39062 2.71484 0 4.62891.80078 1.93359.80078 3.125 2.40234.74218.97657 1.05468 2.42188.3125 1.42578.3125 4.29687z"
       id="path48" />
    <path
       d="m914.39062 394.37695q-.89843 2.28516-2.28515 6.01563-1.9336 5.15625-2.59766 6.28906-.89844 1.52344-2.24609 2.28516-1.34766.76172-3.14453.76172h-2.89063v-3.00782h2.12891q1.58203 0 2.48047-.91797.89843-.91796 2.28515-4.74609l-8.45703-21.52344h3.8086l6.48437 17.10938 6.38672-17.10938h3.80859z"
       id="path50" />
  </g>
  <g
     fill="#fff"
     transform="matrix(.16819038 0 0 .16819038 -41.076493 -10.663632)"
     id="g62">
    <path
       d="m827.06641 372.24805h5.27343l5.03907 14.84375 5.07812-14.84375h5.29297v29.16015h-3.65234v-25.76172l-5.19532 15.3711h-2.98828l-5.21484-15.3711v25.76172h-3.63281z"
       id="path54" />
    <path
       d="m871.1875 389.57227v1.75781h-15.56641v.11719q0 3.57421 1.85547 5.52734 1.875 1.95312 5.27344 1.95312 1.71875 0 3.59375-.54687 1.875-.54688 4.00391-1.66016v3.57422q-2.05079.83985-3.96485 1.25-1.89453.42969-3.67187.42969-5.09766 0-7.96875-3.04688-2.8711-3.0664-2.8711-8.4375 0-5.23437 2.8125-8.35937 2.8125-3.125 7.5-3.125 4.17969 0 6.58203 2.83203 2.42188 2.83203 2.42188 7.73438zm-3.59375-1.05469q-.0781-3.16406-1.50391-4.80469-1.40625-1.66016-4.0625-1.66016-2.59765 0-4.27734 1.71875-1.67969 1.71875-1.99219 4.76563z"
       id="path56" />
    <path
       d="m894.07812 387.85352v13.55468h-3.61328v-13.55468q0-2.94922-1.03515-4.33594-1.03516-1.38672-3.24219-1.38672-2.51953 0-3.88672 1.79687-1.34766 1.77735-1.34766 5.11719v12.36328h-3.59375v-21.875h3.59375v3.28125q.95704-1.875 2.59766-2.83203 1.64063-.97656 3.88672-.97656 3.33984 0 4.98047 2.20703 1.66015 2.1875 1.66015 6.64063z"
       id="path58" />
    <path
       d="m901.44141 393.12695v-13.55468h3.59375v13.55468q0 2.94922 1.03515 4.33594 1.05469 1.38672 3.24219 1.38672 2.53906 0 3.88672-1.77734 1.34765-1.79688 1.34765-5.13672v-12.36328h3.61329v21.83593h-3.61329v-3.28125q-.95703 1.89453-2.61718 2.8711-1.64063.97656-3.84766.97656-3.35937 0-5-2.1875-1.64062-2.20703-1.64062-6.66016z"
       id="path60" />
  </g>
  <path
     d="m84.378154 115.27077 9.999999 10.07037 10.000017-10.07037v-15.649187h-20.000016z"
     stroke="#000"
     stroke-width=".174145"
     id="Up"
     style="stroke-width:0.6979708;stroke-miterlimit:4;stroke-dasharray:none;stroke:#ffffff;stroke-opacity:1" />
  <path
     d="m84.378226 144.14272 10.000034-10.07034 10.00006 10.07034v15.64915h-20.000094z"
     stroke="#000"
     stroke-width=".174145"
     id="Down"
     style="stroke:#ffffff;stroke-opacity:1;stroke-width:0.6979708;stroke-miterlimit:4;stroke-dasharray:none" />
  <path
     d="m108.81422 119.70665-10.07041 10 11.12874 10h14.59092v-20z"
     stroke="#000"
     stroke-width=".174145"
     id="Right"
     style="stroke:#d6d6d6;stroke-opacity:1;stroke-width:0.6979708;stroke-miterlimit:4;stroke-dasharray:none" />
  <path
     d="m79.942224 119.70672 10.070337 10.00004-10.070337 10.00003h-15.64915v-20.00007z"
     stroke="#000"
     stroke-width=".174145"
     id="Left"
     style="stroke:#ffffff;stroke-opacity:1;stroke-width:0.6979708;stroke-miterlimit:4;stroke-dasharray:none" />
  <g
     fill="#fff"
     transform="matrix(.19525049 0 0 .19525049 -26.36773 -41.160194)"
     id="g98">
    <path
       d="m369.04395 534.5918 3.125-3.125 1.75781 1.75781-5.66406 5.68359h-1.60157l-5.70312-5.68359 1.75781-1.75781 3.125 3.125v-12.8711l-3.125 3.125-1.75781-1.75781 5.70312-5.68359h1.60157l5.66406 5.68359-1.75781 1.75781-3.125-3.125z"
       id="DirY" />
    <g
       id="DirPush">
      <path
         d="m291.68066 585.66602q4.98047 0 6.95313-2.44141 1.97266-2.46094 1.97266-8.86719 0-6.46484-1.97266-8.90625-1.95313-2.46094-6.95313-2.46094h-1.875v22.67579zm.0781-25.91797q6.67969 0 9.84375 3.55468 3.16406 3.55469 3.16406 11.05469 0 7.46094-3.16406 11.01563-3.16406 3.53515-9.84375 3.53515h-5.91797v-29.16015z"
         id="path84" />
      <path
         d="m348.61426 558.55664q-2.59766 4.45313-3.88672 8.88672-1.26953 4.41406-1.26953 8.90625 0 4.47266 1.26953 8.90625 1.28906 4.43359 3.88672 8.92578h-3.125q-2.94922-4.64844-4.39453-9.04297-1.44532-4.41406-1.44532-8.78906 0-4.35547 1.44532-8.76953 1.44531-4.41406 4.39453-9.02344z"
         id="path86" />
      <path
         d="m363.92676 585.66602q4.98047 0 6.95312-2.44141 1.97266-2.46094 1.97266-8.86719 0-6.46484-1.97266-8.90625-1.95312-2.46094-6.95312-2.46094h-1.875v22.67579zm.0781-25.91797q6.67969 0 9.84375 3.55468 3.16407 3.55469 3.16407 11.05469 0 7.46094-3.16407 11.01563-3.16406 3.53515-9.84375 3.53515h-5.91797v-29.16015z"
         id="path88" />
      <path
         d="m384.49316 567.0332h9.19922v19.08203h7.12891v2.79297h-17.85156v-2.79297h7.1289v-16.28906h-5.60547zm5.60547-8.51562h3.59375v4.55078h-3.59375z"
         id="path90" />
      <path
         d="m426.13379 571.54492q-1.15234-.89844-2.34375-1.30859-1.19141-.41016-2.61719-.41016-3.35937 0-5.13672 2.10938-1.77734 2.10937-1.77734 6.09375v10.8789h-3.61328v-21.875h3.61328v4.27735q.89844-2.32422 2.75391-3.55469 1.875-1.25 4.43359-1.25 1.32812 0 2.48047.33203 1.15234.33203 2.20703 1.03516z"
         id="path92" />
      <path
         d="m434.4541 558.55664h3.125q2.94922 4.60938 4.39453 9.02344 1.44532 4.41406 1.44532 8.76953 0 4.39453-1.44532 8.80859-1.44531 4.41407-4.39453 9.02344h-3.125q2.59766-4.53125 3.86719-8.96484 1.28906-4.4336 1.28906-8.86719 0-4.45313-1.28906-8.88672-1.26953-4.43359-3.86719-8.90625z"
         id="path94" />
    </g>
    <path
       d="m373.8877 629.55273h-12.8711l3.125 3.125-1.75781 1.75782-5.68359-5.6836v-1.60156l5.68359-5.68359 1.75781 1.75781-3.125 3.125h12.8711l-3.125-3.125 1.75781-1.75781 5.68359 5.68359v1.60156l-5.68359 5.6836-1.75781-1.75782z"
       id="DirX" />
  </g>
  <path
     d="m190.39643 133.54848a24.248714 24.248714 0 0 1 -24.24871 24.24871 24.248714 24.248714 0 0 1 -24.24871-24.24871 24.248714 24.248714 0 0 1 24.24871-24.24872 24.248714 24.248714 0 0 1 24.24871 24.24872z"
     stroke-width=".307016"
     id="Cam"
     style="stroke:#ffffff;stroke-opacity:1;stroke-width:0.6979708;stroke-miterlimit:4;stroke-dasharray:none" />
  <path
     d="m180.56006 133.54848a14.412291 14.412291 0 0 1 -14.41229 14.41229 14.412291 14.412291 0 0 1 -14.41229-14.41229 14.412291 14.412291 0 0 1 14.41229-14.41229 14.412291 14.412291 0 0 1 14.41229 14.41229z"
     fill="#1a1a1a"
     stroke-width=".182475"
     id="path102" />
  <g
     fill="#fff"
     id="g160">
    <g
       transform="matrix(.19525049 0 0 .19525049 94.73255 20.964396)"
       id="g120">
      <path
         d="m369.04395 534.5918 3.125-3.125 1.75781 1.75781-5.66406 5.68359h-1.60157l-5.70312-5.68359 1.75781-1.75781 3.125 3.125v-12.8711l-3.125 3.125-1.75781-1.75781 5.70312-5.68359h1.60157l5.66406 5.68359-1.75781 1.75781-3.125-3.125z"
         id="CamY" />
      <g
         id="CamPush">
        <path
           d="m304.12207 587.87305q-1.50391.80078-3.08594 1.1914-1.58203.41016-3.35937.41016-5.60547 0-8.71094-3.96484-3.08594-3.96485-3.08594-11.15235 0-7.14844 3.10547-11.13281 3.125-4.00391 8.69141-4.00391 1.77734 0 3.35937.41016 1.58203.39062 3.08594 1.19141v4.04296q-1.44531-1.1914-3.10547-1.8164-1.66015-.625-3.33984-.625-3.84766 0-5.76172 2.96875-1.91406 2.96875-1.91406 8.96484 0 5.97656 1.91406 8.94531 1.91406 2.96875 5.76172 2.96875 1.71875 0 3.35937-.625 1.66016-.625 3.08594-1.8164z"
           id="path106" />
        <path
           d="m348.61426 558.55664q-2.59766 4.45313-3.88672 8.88672-1.26953 4.41406-1.26953 8.90625 0 4.47266 1.26953 8.90625 1.28906 4.43359 3.88672 8.92578h-3.125q-2.94922-4.64844-4.39453-9.04297-1.44532-4.41406-1.44532-8.78906 0-4.35547 1.44532-8.76953 1.44531-4.41406 4.39453-9.02344z"
           id="path108" />
        <path
           d="m376.36816 587.87305q-1.5039.80078-3.08593 1.1914-1.58203.41016-3.35938.41016-5.60547 0-8.71094-3.96484-3.08593-3.96485-3.08593-11.15235 0-7.14844 3.10547-11.13281 3.125-4.00391 8.6914-4.00391 1.77735 0 3.35938.41016 1.58203.39062 3.08593 1.19141v4.04296q-1.44531-1.1914-3.10546-1.8164-1.66016-.625-3.33985-.625-3.84765 0-5.76172 2.96875-1.91406 2.96875-1.91406 8.96484 0 5.97656 1.91406 8.94531 1.91407 2.96875 5.76172 2.96875 1.71875 0 3.35938-.625 1.66015-.625 3.08593-1.8164z"
           id="path110" />
        <path
           d="m393.2041 577.91211h-1.1914q-3.14454 0-4.7461 1.11328-1.58203 1.09375-1.58203 3.28125 0 1.97266 1.19141 3.06641 1.1914 1.09375 3.30078 1.09375 2.96875 0 4.66797-2.05078 1.69922-2.07032 1.71875-5.70313v-.80078zm6.97266-1.48438v12.48047h-3.61328v-3.24218q-1.15235 1.95312-2.91016 2.89062-1.73828.91797-4.23828.91797-3.33984 0-5.33203-1.875-1.99219-1.89453-1.99219-5.05859 0-3.65235 2.44141-5.54688 2.46093-1.89453 7.20703-1.89453h4.82422v-.56641q-.0195-2.61718-1.32813-3.78906-1.30859-1.19141-4.17969-1.19141-1.83593 0-3.71093.52735-1.875.52734-3.65235 1.54297v-3.59375q1.99219-.76172 3.8086-1.13282 1.83593-.39062 3.55468-.39062 2.71485 0 4.62891.80078 1.93359.80078 3.125 2.40234.74219.97657 1.05469 2.42188.3125 1.42578.3125 4.29687z"
           id="path112" />
        <path
           d="m416.77832 569.25977q.66406-1.40625 1.67969-2.07032 1.03515-.68359 2.48047-.68359 2.63672 0 3.71093 2.05078 1.09375 2.03125 1.09375 7.67578v12.67578h-3.28125v-12.51953q0-4.6289-.52734-5.74219-.50781-1.13281-1.875-1.13281-1.5625 0-2.14844 1.21094-.5664 1.19141-.5664 5.66406v12.51953h-3.28125v-12.51953q0-4.6875-.56641-5.78125-.54687-1.09375-1.99219-1.09375-1.42578 0-1.99218 1.21094-.54688 1.19141-.54688 5.66406v12.51953h-3.26172v-21.875h3.26172v1.875q.64453-1.17187 1.60156-1.77734.97657-.625 2.20703-.625 1.48438 0 2.46094.68359.9961.6836 1.54297 2.07032z"
           id="path114" />
        <path
           d="m434.4541 558.55664h3.125q2.94922 4.60938 4.39453 9.02344 1.44532 4.41406 1.44532 8.76953 0 4.39453-1.44532 8.80859-1.44531 4.41407-4.39453 9.02344h-3.125q2.59766-4.53125 3.86719-8.96484 1.28906-4.4336 1.28906-8.86719 0-4.45313-1.28906-8.88672-1.26953-4.43359-3.86719-8.90625z"
           id="path116" />
      </g>
      <path
         d="m373.8877 629.55273h-12.8711l3.125 3.125-1.75781 1.75782-5.68359-5.6836v-1.60156l5.68359-5.68359 1.75781 1.75781-3.125 3.125h12.8711l-3.125-3.125 1.75781-1.75781 5.68359 5.68359v1.60156l-5.68359 5.6836-1.75781-1.75782z"
         id="CamX" />
    </g>
    <g
       transform="matrix(.19525049 0 0 .19525049 54.481598 27.344166)"
       id="g132">
      <path
         d="m262.85902 523.05002q1.37627.35289 2.34672 1.34098.97045.97045 2.41729 3.89943l3.58183 7.19895h-3.82885l-3.14072-6.65197q-1.35862-2.84076-2.45258-3.65241-1.07631-.82929-2.82312-.82929h-3.40538v11.13367h-3.58183v-26.34321h7.3401q4.34055 0 6.65197 1.95854 2.31143 1.95853 2.31143 5.66387 0 2.61139-1.4292 4.26997-1.41156 1.64094-3.98766 2.01147zm-7.30481-10.97487v9.35158h3.89943q2.55845 0 3.81121-1.14689 1.25276-1.1469 1.25276-3.51126 0-2.27613-1.34098-3.47596-1.32334-1.21747-3.86415-1.21747z"
         id="path122" />
      <path
         d="m275.72185 515.72756h8.31055v17.23866h6.44024v2.52316h-16.12706v-2.52316h6.44024v-14.7155h-5.06397zm5.06397-7.69299h3.24658v4.11116h-3.24658z"
         id="path124" />
      <path
         d="m308.09948 525.44967q0-3.65241-1.19983-5.54037-1.18218-1.9056-3.45832-1.9056-2.382 0-3.63476 1.9056-1.25276 1.88796-1.25276 5.54037 0 3.65241 1.25276 5.57566 1.2704 1.9056 3.67005 1.9056 2.24085 0 3.42303-1.92325 1.19983-1.92325 1.19983-5.55801zm3.24658 8.76931q0 4.44641-2.09969 6.74019-2.0997 2.29378-6.17557 2.29378-1.34098 0-2.80547-.24702-1.4645-.24702-2.92899-.72343v-3.21129q1.72916.81164 3.14072 1.19982 1.41156.38818 2.59374.38818 2.62903 0 3.82885-1.4292 1.19983-1.4292 1.19983-4.53463v-.14116-2.20556q-.77636 1.65858-2.11734 2.47023-1.34098.81164-3.26423.81164-3.45832 0-5.52272-2.77018-2.06441-2.77018-2.06441-7.41068 0-4.65814 2.06441-7.42833 2.0644-2.77018 5.52272-2.77018 1.9056 0 3.22894.75871 1.32333.75871 2.15263 2.34672v-2.55845h3.24658z"
         id="path126" />
      <path
         d="m333.26051 523.24411v12.24527h-3.26423v-12.24527q0-2.66432-.93516-3.91708-.93516-1.25275-2.92898-1.25275-2.27614 0-3.51126 1.62329-1.21747 1.60565-1.21747 4.62285v11.16896h-3.24658v-27.45481h3.24658v10.65726q.86458-1.69387 2.34672-2.55845 1.48214-.88222 3.51125-.88222 3.01721 0 4.49935 1.99382 1.49978 1.97619 1.49978 5.99913z"
         id="path128" />
      <path
         d="m347.30551 510.11661v5.61095h7.3754v2.52316h-7.3754v10.72785q0 2.18791.82929 3.05249.82929.86458 2.8937.86458h3.65241v2.59374h-3.97001q-3.65241 0-5.15219-1.46449-1.49978-1.46449-1.49978-5.04632v-10.72785h-5.2757v-2.52316h5.2757v-5.61095z"
         id="path130" />
    </g>
    <g
       transform="matrix(.19525049 0 0 .19525049 16.252168 27.344298)"
       id="g142">
      <path
         d="m253.24278 509.14617h3.58183v23.34365h12.72167v2.99956h-16.3035z"
         id="path134" />
      <path
         d="m290.82553 524.79682v1.58801h-14.06265v.10586q0 3.22894 1.67622 4.99339 1.69387 1.76445 4.76401 1.76445 1.55272 0 3.24659-.49405 1.69387-.49404 3.61712-1.49978v3.22894q-1.85268.75872-3.58183 1.12925-1.71152.38818-3.31717.38818-4.60521 0-7.19895-2.75254-2.59373-2.77018-2.59373-7.62242 0-4.72872 2.5408-7.55183 2.54081-2.82312 6.77548-2.82312 3.77592 0 5.94619 2.55845 2.18792 2.55845 2.18792 6.98721zm-3.24659-.9528q-.0706-2.8584-1.35862-4.34054-1.2704-1.49978-3.67005-1.49978-2.34672 0-3.86415 1.55271-1.51742 1.55272-1.79973 4.30526z"
         id="path136" />
      <path
         d="m311.71659 508.03457v2.6996h-3.68769q-1.74681 0-2.43494.72342-.67049.70578-.67049 2.52317v1.7468h6.79312v2.52316h-6.79312v17.23866h-3.24659v-17.23866h-5.2757v-2.52316h5.2757v-1.37627q0-3.24658 1.48214-4.78165 1.49978-1.53507 4.65814-1.53507z"
         id="path138" />
      <path
         d="m325.54987 510.11661v5.61095h7.37539v2.52316h-7.37539v10.72785q0 2.18791.82929 3.05249.82929.86458 2.89369.86458h3.65241v2.59374h-3.97001q-3.6524 0-5.15219-1.46449-1.49978-1.46449-1.49978-5.04632v-10.72785h-5.2757v-2.52316h5.2757v-5.61095z"
         id="path140" />
    </g>
    <g
       transform="matrix(.19525049 0 0 .19525049 32.117695 5.04946)"
       id="g148">
      <path
         d="m298.22188 525.37909v-16.23292h3.58183v17.85621q0 1.92325.10587 2.75254.10587.81165.37053 1.25276.56463 1.04103 1.6233 1.57036 1.07631.52933 2.59373.52933 1.53507 0 2.59374-.52933 1.05867-.52933 1.64094-1.57036.26467-.44111.37053-1.25276.10587-.81164.10587-2.71725v-17.8915h3.56419v16.23292q0 4.04059-.51169 5.7521-.49405 1.69387-1.72916 2.80547-1.16454 1.04103-2.66432 1.55272-1.49978.51169-3.3701.51169-1.85267 0-3.35245-.51169-1.49978-.51169-2.68196-1.55272-1.21747-1.09395-1.72916-2.82311-.51169-1.74681-.51169-5.73446z"
         id="path144" />
      <path
         d="m324.00047 533.00151v10.00442h-3.26423v-27.27837h3.26423v2.52316q.81165-1.46449 2.15263-2.2232 1.35862-.77636 3.12307-.77636 3.58183 0 5.61094 2.77018 2.04676 2.77019 2.04676 7.67535 0 4.81695-2.04676 7.56948-2.04676 2.7349-5.61094 2.7349-1.79974 0-3.15836-.75871-1.34098-.77636-2.11734-2.24085zm9.52802-7.3754q0-3.77592-1.19983-5.69916-1.18218-1.92325-3.52889-1.92325-2.36436 0-3.58183 1.94089-1.21747 1.92325-1.21747 5.68152 0 3.74063 1.21747 5.68153 1.21747 1.94089 3.58183 1.94089 2.34671 0 3.52889-1.92325 1.19983-1.92325 1.19983-5.69917z"
         id="path146" />
    </g>
    <g
       transform="matrix(.19525049 0 0 .19525049 32.11771 49.053644)"
       id="g158">
      <path
         d="m281.56549 532.5604q4.49934 0 6.28144-2.20557 1.78209-2.2232 1.78209-8.01059 0-5.84032-1.78209-8.04588-1.76445-2.22321-6.28144-2.22321h-1.69387v20.48525zm.0706-23.41423q6.03441 0 8.89282 3.21129 2.8584 3.2113 2.8584 9.98678 0 6.74019-2.8584 9.95149-2.85841 3.19365-8.89282 3.19365h-5.34628v-26.34321z"
         id="path150" />
      <path
         d="m306.49714 518.0037q-2.47022 0-3.74063 1.92325-1.2704 1.92324-1.2704 5.69916 0 3.75828 1.2704 5.69917 1.27041 1.92325 3.74063 1.92325 2.48788 0 3.75828-1.92325 1.2704-1.94089 1.2704-5.69917 0-3.77592-1.2704-5.69916-1.2704-1.92325-3.75828-1.92325zm0-2.75254q4.11117 0 6.28144 2.66432 2.18791 2.66431 2.18791 7.71063 0 5.06397-2.17027 7.72829-2.17027 2.64667-6.29908 2.64667-4.11116 0-6.28143-2.64667-2.17027-2.66432-2.17027-7.72829 0-5.04632 2.17027-7.71063 2.17027-2.66432 6.28143-2.66432z"
         id="path152" />
      <path
         d="m317.38379 515.72756h3.21129l3.44068 15.96826 2.82312-10.19851h2.77018l2.8584 10.19851 3.44068-15.96826h3.21129l-4.62285 19.76182h-3.10543l-3.15836-10.83371-3.14072 10.83371h-3.10543z"
         id="path154" />
      <path
         d="m357.68378 523.24411v12.24527h-3.26422v-12.24527q0-2.66432-.93516-3.91708-.93516-1.25275-2.92899-1.25275-2.27613 0-3.51125 1.62329-1.21747 1.60565-1.21747 4.62285v11.16896h-3.24658v-19.76182h3.24658v2.96427q.86458-1.69387 2.34672-2.55845 1.48214-.88222 3.51125-.88222 3.01721 0 4.49934 1.99382 1.49978 1.97619 1.49978 5.99913z"
         id="path156" />
    </g>
  </g>
  <path
     d="m0 17.304989h82.172707v17.304989h-82.172707z"
     stroke="#fff"
     stroke-width=".698013"
     id="BumperL"
     style="stroke-width:0.6979708;stroke-miterlimit:4;stroke-dasharray:none"
     inkscape:label="" />
  <g
     fill="#fff"
     transform="matrix(.26458332 0 0 .26458332 4.090645 -30.425509)"
     id="g182">
    <path
       d="m4.7382812 194.62891h3.9648438v25.83984h14.082031v3.32031h-18.0468748z"
       id="path164" />
    <path
       d="m65.988281 193.4375q-2.597656 4.45312-3.886719 8.88672-1.269531 4.41406-1.269531 8.90625 0 4.47265 1.269531 8.90625 1.289063 4.43359 3.886719 8.92578h-3.125q-2.949219-4.64844-4.394531-9.04297-1.445313-4.41406-1.445313-8.78906 0-4.35547 1.445313-8.76953 1.445312-4.41407 4.394531-9.02344z"
       id="path166" />
    <path
       d="m79.992187 209.86328v10.68359h4.667969q3.4375 0 4.902344-1.1914 1.464844-1.21094 1.464844-3.96485 0-2.85156-1.542969-4.17968-1.542969-1.34766-4.824219-1.34766zm0-11.99219v8.78907h4.589844q2.851563 0 4.121094-1.09375 1.289062-1.09375 1.289062-3.53516 0-2.20703-1.269531-3.18359-1.25-.97657-4.140625-.97657zm-3.964843-3.24218h8.632812q4.472656 0 6.894531 1.93359 2.421875 1.93359 2.421875 5.46875 0 2.67578-1.289062 4.21875-1.269531 1.54297-3.828125 1.93359 2.871094.42969 4.492187 2.46094 1.640625 2.01172 1.640625 5.13672 0 3.96484-2.597656 5.99609-2.597656 2.01172-7.734375 2.01172h-8.632812z"
       id="path168" />
    <path
       d="m100.67578 215.50781v-13.55469h3.59375v13.55469q0 2.94922 1.03516 4.33594 1.05469 1.38672 3.24219 1.38672 2.53906 0 3.88671-1.77735 1.34766-1.79687 1.34766-5.13671v-12.36329h3.61328v21.83594h-3.61328v-3.28125q-.95703 1.89453-2.61719 2.8711-1.64062.97656-3.84765.97656-3.35938 0-5-2.1875-1.64063-2.20703-1.64063-6.66016z"
       id="path170" />
    <path
       d="m134.15234 204.14062q.66407-1.40625 1.67969-2.07031 1.03516-.68359 2.48047-.68359 2.63672 0 3.71094 2.05078 1.09375 2.03125 1.09375 7.67578v12.67578h-3.28125v-12.51953q0-4.62891-.52735-5.74219-.50781-1.13281-1.875-1.13281-1.5625 0-2.14843 1.21094-.56641 1.1914-.56641 5.66406v12.51953h-3.28125v-12.51953q0-4.6875-.56641-5.78125-.54687-1.09375-1.99218-1.09375-1.42578 0-1.99219 1.21094-.54688 1.1914-.54688 5.66406v12.51953h-3.26171v-21.875h3.26171v1.875q.64454-1.17187 1.60157-1.77734.97656-.625 2.20703-.625 1.48437 0 2.46093.68359.9961.6836 1.54297 2.07031z"
       id="path172" />
    <path
       d="m152.35547 221.03516v11.07421h-3.61328v-30.19531h3.61328v2.79297q.89844-1.62109 2.38281-2.46094 1.50391-.85937 3.45703-.85937 3.96485 0 6.21094 3.0664 2.26562 3.06641 2.26562 8.4961 0 5.33203-2.26562 8.3789-2.26563 3.02735-6.21094 3.02735-1.99219 0-3.49609-.83985-1.48438-.85937-2.34375-2.48046zm10.54687-8.16407q0-4.17968-1.32812-6.30859-1.3086-2.12891-3.90625-2.12891-2.61719 0-3.96485 2.14844-1.34765 2.12891-1.34765 6.28906 0 4.14063 1.34765 6.28907 1.34766 2.14843 3.96485 2.14843 2.59765 0 3.90625-2.1289 1.32812-2.12891 1.32812-6.3086z"
       id="path174" />
    <path
       d="m190.83203 211.95312v1.75782h-15.56641v.11718q0 3.57422 1.85547 5.52735 1.875 1.95312 5.27344 1.95312 1.71875 0 3.59375-.54687 1.875-.54688 4.00391-1.66016v3.57422q-2.05078.83984-3.96485 1.25-1.89453.42969-3.67187.42969-5.09766 0-7.96875-3.04688-2.8711-3.0664-2.8711-8.4375 0-5.23437 2.8125-8.35937 2.8125-3.125 7.5-3.125 4.17969 0 6.58204 2.83203 2.42187 2.83203 2.42187 7.73437zm-3.59375-1.05468q-.0781-3.16407-1.50391-4.80469-1.40625-1.66016-4.0625-1.66016-2.59765 0-4.27734 1.71875-1.67969 1.71875-1.99219 4.76563z"
       id="path176" />
    <path
       d="m215.75391 206.42578q-1.15235-.89844-2.34375-1.30859-1.19141-.41016-2.61719-.41016-3.35938 0-5.13672 2.10938-1.77734 2.10937-1.77734 6.09375v10.8789h-3.61329v-21.875h3.61329v4.27735q.89843-2.32422 2.7539-3.55469 1.875-1.25 4.4336-1.25 1.32812 0 2.48046.33203 1.15235.33203 2.20704 1.03516z"
       id="path178" />
    <path
       d="m224.07422 193.4375h3.125q2.94922 4.60937 4.39453 9.02344 1.44531 4.41406 1.44531 8.76953 0 4.39453-1.44531 8.80859-1.44531 4.41406-4.39453 9.02344h-3.125q2.59765-4.53125 3.86719-8.96484 1.28906-4.4336 1.28906-8.86719 0-4.45313-1.28906-8.88672-1.26954-4.43359-3.86719-8.90625z"
       id="path180" />
  </g>
  <path
     d="m0 0h82.172707v17.304989h-82.172707z"
     stroke="#fff"
     stroke-width=".698013"
     id="TriggerL"
     style="fill:#000000;fill-opacity:1"
     inkscape:label="" />
  <g
     fill="#fff"
     transform="matrix(.26458332 0 0 .26458332 4.090644 -47.730497)"
     id="g208">
    <path
       d="m1.4570312 194.62891h22.2460938v3.32031h-9.121094v25.83984h-3.964843v-25.83984h-9.1601568z"
       id="path186" />
    <path
       d="m28.820312 194.62891h3.964844v25.83984h14.082031v3.32031h-18.046875z"
       id="path188" />
    <path
       d="m90.070312 193.4375q-2.597656 4.45312-3.886718 8.88672-1.269532 4.41406-1.269532 8.90625 0 4.47265 1.269532 8.90625 1.289062 4.43359 3.886718 8.92578h-3.125q-2.949218-4.64844-4.394531-9.04297-1.445312-4.41406-1.445312-8.78906 0-4.35547 1.445312-8.76953 1.445313-4.41407 4.394531-9.02344z"
       id="path190" />
    <path
       d="m97.785156 194.62891h22.246094v3.32031h-9.12109v25.83984h-3.96485v-25.83984h-9.160154z"
       id="path192" />
    <path
       d="m143.50781 206.42578q-1.15234-.89844-2.34375-1.30859-1.1914-.41016-2.61719-.41016-3.35937 0-5.13671 2.10938-1.77735 2.10937-1.77735 6.09375v10.8789h-3.61328v-21.875h3.61328v4.27735q.89844-2.32422 2.75391-3.55469 1.875-1.25 4.43359-1.25 1.32813 0 2.48047.33203 1.15234.33203 2.20703 1.03516z"
       id="path194" />
    <path
       d="m150.03125 201.91406h9.19922v19.08203h7.1289v2.79297h-17.85156v-2.79297h7.12891v-16.28906h-5.60547zm5.60547-8.51562h3.59375v4.55078h-3.59375z"
       id="path196" />
    <path
       d="m185.87109 212.67578q0-4.04297-1.32812-6.13281-1.3086-2.10938-3.82813-2.10938-2.63672 0-4.02343 2.10938-1.38672 2.08984-1.38672 6.13281 0 4.04297 1.38672 6.17188 1.40625 2.10937 4.0625 2.10937 2.48046 0 3.78906-2.12891 1.32812-2.1289 1.32812-6.15234zm3.59375 9.70703q0 4.92188-2.32422 7.46094-2.32421 2.53906-6.83593 2.53906-1.48438 0-3.10547-.27344-1.6211-.27343-3.24219-.80078v-3.55468q1.91406.89843 3.47656 1.32812 1.5625.42969 2.8711.42969 2.91015 0 4.23828-1.58203 1.32812-1.58203 1.32812-5.01953v-.15625-2.44141q-.85937 1.83594-2.34375 2.73437-1.48437.89844-3.61328.89844-3.82812 0-6.11328-3.0664-2.28516-3.06641-2.28516-8.20313 0-5.15625 2.28516-8.22266 2.28516-3.0664 6.11328-3.0664 2.10938 0 3.57422.83984 1.46484.83985 2.38281 2.59766v-2.83203h3.59375z"
       id="path198" />
    <path
       d="m209.95312 212.67578q0-4.04297-1.32812-6.13281-1.30859-2.10938-3.82813-2.10938-2.63671 0-4.02343 2.10938-1.38672 2.08984-1.38672 6.13281 0 4.04297 1.38672 6.17188 1.40625 2.10937 4.0625 2.10937 2.48047 0 3.78906-2.12891 1.32812-2.1289 1.32812-6.15234zm3.59375 9.70703q0 4.92188-2.32421 7.46094-2.32422 2.53906-6.83594 2.53906-1.48438 0-3.10547-.27344-1.62109-.27343-3.24219-.80078v-3.55468q1.91406.89843 3.47656 1.32812 1.5625.42969 2.8711.42969 2.91015 0 4.23828-1.58203 1.32812-1.58203 1.32812-5.01953v-.15625-2.44141q-.85937 1.83594-2.34375 2.73437-1.48437.89844-3.61328.89844-3.82812 0-6.11328-3.0664-2.28515-3.06641-2.28515-8.20313 0-5.15625 2.28515-8.22266 2.28516-3.0664 6.11328-3.0664 2.10938 0 3.57422.83984 1.46485.83985 2.38281 2.59766v-2.83203h3.59375z"
       id="path200" />
    <path
       d="m238.99609 211.95312v1.75782h-15.5664v.11718q0 3.57422 1.85547 5.52735 1.875 1.95312 5.27343 1.95312 1.71875 0 3.59375-.54687 1.875-.54688 4.00391-1.66016v3.57422q-2.05078.83984-3.96484 1.25-1.89454.42969-3.67188.42969-5.09766 0-7.96875-3.04688-2.87109-3.0664-2.87109-8.4375 0-5.23437 2.8125-8.35937 2.8125-3.125 7.5-3.125 4.17968 0 6.58203 2.83203 2.42187 2.83203 2.42187 7.73437zm-3.59375-1.05468q-.0781-3.16407-1.5039-4.80469-1.40625-1.66016-4.0625-1.66016-2.59766 0-4.27735 1.71875-1.67968 1.71875-1.99218 4.76563z"
       id="path202" />
    <path
       d="m263.91797 206.42578q-1.15235-.89844-2.34375-1.30859-1.19141-.41016-2.61719-.41016-3.35937 0-5.13672 2.10938-1.77734 2.10937-1.77734 6.09375v10.8789h-3.61328v-21.875h3.61328v4.27735q.89844-2.32422 2.7539-3.55469 1.875-1.25 4.4336-1.25 1.32812 0 2.48047.33203 1.15234.33203 2.20703 1.03516z"
       id="path204" />
    <path
       d="m272.23828 193.4375h3.125q2.94922 4.60937 4.39453 9.02344 1.44531 4.41406 1.44531 8.76953 0 4.39453-1.44531 8.80859-1.44531 4.41406-4.39453 9.02344h-3.125q2.59766-4.53125 3.86719-8.96484 1.28906-4.4336 1.28906-8.86719 0-4.45313-1.28906-8.88672-1.26953-4.43359-3.86719-8.90625z"
       id="path206" />
  </g>
  <path
     d="m188.76062 17.304989h82.17271v17.304989h-82.17271z"
     stroke="#fff"
     stroke-width=".698013"
     id="BumperR"
     inkscape:label="" />
  <g
     fill="#fff"
     transform="matrix(.26458332 0 0 .26458332 192.85126 -30.425508)"
     id="g230">
    <path
       d="m15.382813 210.01953q1.523437.39063 2.597656 1.48438 1.074218 1.07421 2.675781 4.3164l3.964844 7.96875h-4.238282l-3.476562-7.36328q-1.503906-3.14453-2.714844-4.04297-1.191406-.91797-3.125-.91797h-3.769531v12.32422h-3.9648437v-29.16015h8.1249997q4.804688 0 7.363281 2.16796 2.558594 2.16797 2.558594 6.26954 0 2.89062-1.582031 4.72656-1.5625 1.8164-4.414062 2.22656zm-8.085938-12.14844v10.35157h4.316406q2.832032 0 4.21875-1.26954 1.386719-1.26953 1.386719-3.88671 0-2.51954-1.484375-3.84766-1.464844-1.34766-4.277344-1.34766z"
       id="path212" />
    <path
       d="m65.988281 193.4375q-2.597656 4.45312-3.886719 8.88672-1.269531 4.41406-1.269531 8.90625 0 4.47265 1.269531 8.90625 1.289063 4.43359 3.886719 8.92578h-3.125q-2.949219-4.64844-4.394531-9.04297-1.445313-4.41406-1.445313-8.78906 0-4.35547 1.445313-8.76953 1.445312-4.41407 4.394531-9.02344z"
       id="path214" />
    <path
       d="m79.992187 209.86328v10.68359h4.667969q3.4375 0 4.902344-1.1914 1.464844-1.21094 1.464844-3.96485 0-2.85156-1.542969-4.17968-1.542969-1.34766-4.824219-1.34766zm0-11.99219v8.78907h4.589844q2.851563 0 4.121094-1.09375 1.289062-1.09375 1.289062-3.53516 0-2.20703-1.269531-3.18359-1.25-.97657-4.140625-.97657zm-3.964843-3.24218h8.632812q4.472656 0 6.894531 1.93359 2.421875 1.93359 2.421875 5.46875 0 2.67578-1.289062 4.21875-1.269531 1.54297-3.828125 1.93359 2.871094.42969 4.492187 2.46094 1.640625 2.01172 1.640625 5.13672 0 3.96484-2.597656 5.99609-2.597656 2.01172-7.734375 2.01172h-8.632812z"
       id="path216" />
    <path
       d="m100.67578 215.50781v-13.55469h3.59375v13.55469q0 2.94922 1.03516 4.33594 1.05469 1.38672 3.24219 1.38672 2.53906 0 3.88671-1.77735 1.34766-1.79687 1.34766-5.13671v-12.36329h3.61328v21.83594h-3.61328v-3.28125q-.95703 1.89453-2.61719 2.8711-1.64062.97656-3.84765.97656-3.35938 0-5-2.1875-1.64063-2.20703-1.64063-6.66016z"
       id="path218" />
    <path
       d="m134.15234 204.14062q.66407-1.40625 1.67969-2.07031 1.03516-.68359 2.48047-.68359 2.63672 0 3.71094 2.05078 1.09375 2.03125 1.09375 7.67578v12.67578h-3.28125v-12.51953q0-4.62891-.52735-5.74219-.50781-1.13281-1.875-1.13281-1.5625 0-2.14843 1.21094-.56641 1.1914-.56641 5.66406v12.51953h-3.28125v-12.51953q0-4.6875-.56641-5.78125-.54687-1.09375-1.99218-1.09375-1.42578 0-1.99219 1.21094-.54688 1.1914-.54688 5.66406v12.51953h-3.26171v-21.875h3.26171v1.875q.64454-1.17187 1.60157-1.77734.97656-.625 2.20703-.625 1.48437 0 2.46093.68359.9961.6836 1.54297 2.07031z"
       id="path220" />
    <path
       d="m152.35547 221.03516v11.07421h-3.61328v-30.19531h3.61328v2.79297q.89844-1.62109 2.38281-2.46094 1.50391-.85937 3.45703-.85937 3.96485 0 6.21094 3.0664 2.26562 3.06641 2.26562 8.4961 0 5.33203-2.26562 8.3789-2.26563 3.02735-6.21094 3.02735-1.99219 0-3.49609-.83985-1.48438-.85937-2.34375-2.48046zm10.54687-8.16407q0-4.17968-1.32812-6.30859-1.3086-2.12891-3.90625-2.12891-2.61719 0-3.96485 2.14844-1.34765 2.12891-1.34765 6.28906 0 4.14063 1.34765 6.28907 1.34766 2.14843 3.96485 2.14843 2.59765 0 3.90625-2.1289 1.32812-2.12891 1.32812-6.3086z"
       id="path222" />
    <path
       d="m190.83203 211.95312v1.75782h-15.56641v.11718q0 3.57422 1.85547 5.52735 1.875 1.95312 5.27344 1.95312 1.71875 0 3.59375-.54687 1.875-.54688 4.00391-1.66016v3.57422q-2.05078.83984-3.96485 1.25-1.89453.42969-3.67187.42969-5.09766 0-7.96875-3.04688-2.8711-3.0664-2.8711-8.4375 0-5.23437 2.8125-8.35937 2.8125-3.125 7.5-3.125 4.17969 0 6.58204 2.83203 2.42187 2.83203 2.42187 7.73437zm-3.59375-1.05468q-.0781-3.16407-1.50391-4.80469-1.40625-1.66016-4.0625-1.66016-2.59765 0-4.27734 1.71875-1.67969 1.71875-1.99219 4.76563z"
       id="path224" />
    <path
       d="m215.75391 206.42578q-1.15235-.89844-2.34375-1.30859-1.19141-.41016-2.61719-.41016-3.35938 0-5.13672 2.10938-1.77734 2.10937-1.77734 6.09375v10.8789h-3.61329v-21.875h3.61329v4.27735q.89843-2.32422 2.7539-3.55469 1.875-1.25 4.4336-1.25 1.32812 0 2.48046.33203 1.15235.33203 2.20704 1.03516z"
       id="path226" />
    <path
       d="m224.07422 193.4375h3.125q2.94922 4.60937 4.39453 9.02344 1.44531 4.41406 1.44531 8.76953 0 4.39453-1.44531 8.80859-1.44531 4.41406-4.39453 9.02344h-3.125q2.59765-4.53125 3.86719-8.96484 1.28906-4.4336 1.28906-8.86719 0-4.45313-1.28906-8.88672-1.26954-4.43359-3.86719-8.90625z"
       id="path228" />
  </g>
  <path
     d="m188.76062 0h82.1727v17.304989h-82.1727z"
     stroke="#fff"
     stroke-width=".698013"
     id="TriggerR"
     inkscape:label="" />
  <g
     fill="#ffffff"
     transform="matrix(0.26458332,0,0,0.26458332,192.85126,-47.730496)"
     id="g256"
     sodipodi:insensitive="true">
    <path
       d="M 1.4570312,194.62891 H 23.703125 v 3.32031 h -9.121094 v 25.83984 H 10.617188 V 197.94922 H 1.4570312 Z"
       id="path234" />
    <path
       d="m 39.464844,210.01953 q 1.523437,0.39063 2.597656,1.48438 1.074219,1.07421 2.675781,4.3164 l 3.964844,7.96875 h -4.238281 l -3.476563,-7.36328 q -1.503906,-3.14453 -2.714844,-4.04297 -1.191406,-0.91797 -3.125,-0.91797 h -3.769531 v 12.32422 h -3.964844 v -29.16015 h 8.125 q 4.804688,0 7.363282,2.16796 2.558593,2.16797 2.558593,6.26954 0,2.89062 -1.582031,4.72656 -1.5625,1.8164 -4.414062,2.22656 z m -8.085938,-12.14844 v 10.35157 h 4.316406 q 2.832032,0 4.21875,-1.26954 1.386719,-1.26953 1.386719,-3.88671 0,-2.51954 -1.484375,-3.84766 -1.464844,-1.34766 -4.277344,-1.34766 z"
       id="path236" />
    <path
       d="m 90.070312,193.4375 q -2.597656,4.45312 -3.886718,8.88672 -1.269532,4.41406 -1.269532,8.90625 0,4.47265 1.269532,8.90625 1.289062,4.43359 3.886718,8.92578 h -3.125 q -2.949218,-4.64844 -4.394531,-9.04297 -1.445312,-4.41406 -1.445312,-8.78906 0,-4.35547 1.445312,-8.76953 1.445313,-4.41407 4.394531,-9.02344 z"
       id="path238" />
    <path
       d="m 97.785156,194.62891 h 22.246094 v 3.32031 h -9.12109 v 25.83984 h -3.96485 v -25.83984 h -9.160154 z"
       id="path240" />
    <path
       d="m 143.50781,206.42578 q -1.15234,-0.89844 -2.34375,-1.30859 -1.1914,-0.41016 -2.61719,-0.41016 -3.35937,0 -5.13671,2.10938 -1.77735,2.10937 -1.77735,6.09375 v 10.8789 h -3.61328 v -21.875 h 3.61328 v 4.27735 q 0.89844,-2.32422 2.75391,-3.55469 1.875,-1.25 4.43359,-1.25 1.32813,0 2.48047,0.33203 1.15234,0.33203 2.20703,1.03516 z"
       id="path242" />
    <path
       d="m 150.03125,201.91406 h 9.19922 v 19.08203 h 7.1289 v 2.79297 h -17.85156 v -2.79297 h 7.12891 v -16.28906 h -5.60547 z m 5.60547,-8.51562 h 3.59375 v 4.55078 h -3.59375 z"
       id="path244" />
    <path
       d="m 185.87109,212.67578 q 0,-4.04297 -1.32812,-6.13281 -1.3086,-2.10938 -3.82813,-2.10938 -2.63672,0 -4.02343,2.10938 -1.38672,2.08984 -1.38672,6.13281 0,4.04297 1.38672,6.17188 1.40625,2.10937 4.0625,2.10937 2.48046,0 3.78906,-2.12891 1.32812,-2.1289 1.32812,-6.15234 z m 3.59375,9.70703 q 0,4.92188 -2.32422,7.46094 -2.32421,2.53906 -6.83593,2.53906 -1.48438,0 -3.10547,-0.27344 -1.6211,-0.27343 -3.24219,-0.80078 v -3.55468 q 1.91406,0.89843 3.47656,1.32812 1.5625,0.42969 2.8711,0.42969 2.91015,0 4.23828,-1.58203 1.32812,-1.58203 1.32812,-5.01953 v -0.15625 -2.44141 q -0.85937,1.83594 -2.34375,2.73437 -1.48437,0.89844 -3.61328,0.89844 -3.82812,0 -6.11328,-3.0664 -2.28516,-3.06641 -2.28516,-8.20313 0,-5.15625 2.28516,-8.22266 2.28516,-3.0664 6.11328,-3.0664 2.10938,0 3.57422,0.83984 1.46484,0.83985 2.38281,2.59766 v -2.83203 h 3.59375 z"
       id="path246" />
    <path
       d="m 209.95312,212.67578 q 0,-4.04297 -1.32812,-6.13281 -1.30859,-2.10938 -3.82813,-2.10938 -2.63671,0 -4.02343,2.10938 -1.38672,2.08984 -1.38672,6.13281 0,4.04297 1.38672,6.17188 1.40625,2.10937 4.0625,2.10937 2.48047,0 3.78906,-2.12891 1.32812,-2.1289 1.32812,-6.15234 z m 3.59375,9.70703 q 0,4.92188 -2.32421,7.46094 -2.32422,2.53906 -6.83594,2.53906 -1.48438,0 -3.10547,-0.27344 -1.62109,-0.27343 -3.24219,-0.80078 v -3.55468 q 1.91406,0.89843 3.47656,1.32812 1.5625,0.42969 2.8711,0.42969 2.91015,0 4.23828,-1.58203 1.32812,-1.58203 1.32812,-5.01953 v -0.15625 -2.44141 q -0.85937,1.83594 -2.34375,2.73437 -1.48437,0.89844 -3.61328,0.89844 -3.82812,0 -6.11328,-3.0664 -2.28515,-3.06641 -2.28515,-8.20313 0,-5.15625 2.28515,-8.22266 2.28516,-3.0664 6.11328,-3.0664 2.10938,0 3.57422,0.83984 1.46485,0.83985 2.38281,2.59766 v -2.83203 h 3.59375 z"
       id="path248" />
    <path
       d="m 238.99609,211.95312 v 1.75782 h -15.5664 v 0.11718 q 0,3.57422 1.85547,5.52735 1.875,1.95312 5.27343,1.95312 1.71875,0 3.59375,-0.54687 1.875,-0.54688 4.00391,-1.66016 v 3.57422 q -2.05078,0.83984 -3.96484,1.25 -1.89454,0.42969 -3.67188,0.42969 -5.09766,0 -7.96875,-3.04688 -2.87109,-3.0664 -2.87109,-8.4375 0,-5.23437 2.8125,-8.35937 2.8125,-3.125 7.5,-3.125 4.17968,0 6.58203,2.83203 2.42187,2.83203 2.42187,7.73437 z m -3.59375,-1.05468 q -0.0781,-3.16407 -1.5039,-4.80469 -1.40625,-1.66016 -4.0625,-1.66016 -2.59766,0 -4.27735,1.71875 -1.67968,1.71875 -1.99218,4.76563 z"
       id="path250" />
    <path
       d="m 263.91797,206.42578 q -1.15235,-0.89844 -2.34375,-1.30859 -1.19141,-0.41016 -2.61719,-0.41016 -3.35937,0 -5.13672,2.10938 -1.77734,2.10937 -1.77734,6.09375 v 10.8789 h -3.61328 v -21.875 h 3.61328 v 4.27735 q 0.89844,-2.32422 2.7539,-3.55469 1.875,-1.25 4.4336,-1.25 1.32812,0 2.48047,0.33203 1.15234,0.33203 2.20703,1.03516 z"
       id="path252" />
    <path
       d="m 272.23828,193.4375 h 3.125 q 2.94922,4.60937 4.39453,9.02344 1.44531,4.41406 1.44531,8.76953 0,4.39453 -1.44531,8.80859 -1.44531,4.41406 -4.39453,9.02344 h -3.125 q 2.59766,-4.53125 3.86719,-8.96484 1.28906,-4.4336 1.28906,-8.86719 0,-4.45313 -1.28906,-8.88672 -1.26953,-4.43359 -3.86719,-8.90625 z"
       id="path254" />
  </g>
  <path
     d="m.00001194 185.89505h82.17270706v17.30494h-82.17270706z"
     stroke="#808080"
     stroke-width=".698012"
     id="GripL" />
  <g
     fill="#808080"
     transform="matrix(.26458332 0 0 .26458254 4.090656 138.16439)"
     id="g276">
    <path
       d="m22.101562 221.38672q-1.582031 1.46484-3.574218 2.22656-1.972657.74219-4.277344.74219-5.546875 0-8.6328125-3.96485-3.0859375-3.98437-3.0859375-11.15234 0-7.14844 3.125-11.13281 3.125-4.00391 8.691406-4.00391 1.835938 0 3.515625.52735 1.679688.50781 3.242188 1.5625v4.04296q-1.582032-1.5039-3.242188-2.20703-1.660156-.72265-3.515625-.72265-3.847656 0-5.7812497 2.98828-1.9140626 2.96875-1.9140626 8.94531 0 6.07422 1.8554688 9.00391 1.8750005 2.91015 5.7421875 2.91015 1.308594 0 2.285156-.29297.996094-.3125 1.796875-.95703v-7.83203h-4.238281v-3.24219h8.007812z"
       id="path260" />
    <path
       d="m28.820312 194.62891h3.964844v25.83984h14.082031v3.32031h-18.046875z"
       id="path262" />
    <path
       d="m90.070312 193.4375q-2.597656 4.45312-3.886718 8.88672-1.269532 4.41406-1.269532 8.90625 0 4.47265 1.269532 8.90625 1.289062 4.43359 3.886718 8.92578h-3.125q-2.949218-4.64844-4.394531-9.04297-1.445312-4.41406-1.445312-8.78906 0-4.35547 1.445312-8.76953 1.445313-4.41407 4.394531-9.02344z"
       id="path264" />
    <path
       d="m118.42969 221.38672q-1.58203 1.46484-3.57422 2.22656-1.97266.74219-4.27734.74219-5.54688 0-8.63282-3.96485-3.085935-3.98437-3.085935-11.15234 0-7.14844 3.125005-11.13281 3.125-4.00391 8.6914-4.00391 1.83594 0 3.51563.52735 1.67968.50781 3.24218 1.5625v4.04296q-1.58203-1.5039-3.24218-2.20703-1.66016-.72265-3.51563-.72265-3.84765 0-5.78125 2.98828-1.91406 2.96875-1.91406 8.94531 0 6.07422 1.85547 9.00391 1.875 2.91015 5.74219 2.91015 1.30859 0 2.28515-.29297.9961-.3125 1.79688-.95703v-7.83203h-4.23828v-3.24219h8.00781z"
       id="path266" />
    <path
       d="m143.50781 206.42578q-1.15234-.89844-2.34375-1.30859-1.1914-.41016-2.61719-.41016-3.35937 0-5.13671 2.10938-1.77735 2.10937-1.77735 6.09375v10.8789h-3.61328v-21.875h3.61328v4.27735q.89844-2.32422 2.75391-3.55469 1.875-1.25 4.43359-1.25 1.32813 0 2.48047.33203 1.15234.33203 2.20703 1.03516z"
       id="path268" />
    <path
       d="m150.03125 201.91406h9.19922v19.08203h7.1289v2.79297h-17.85156v-2.79297h7.12891v-16.28906h-5.60547zm5.60547-8.51562h3.59375v4.55078h-3.59375z"
       id="path270" />
    <path
       d="m176.4375 221.03516v11.07421h-3.61328v-30.19531h3.61328v2.79297q.89844-1.62109 2.38281-2.46094 1.50391-.85937 3.45703-.85937 3.96485 0 6.21094 3.0664 2.26563 3.06641 2.26563 8.4961 0 5.33203-2.26563 8.3789-2.26562 3.02735-6.21094 3.02735-1.99218 0-3.49609-.83985-1.48438-.85937-2.34375-2.48046zm10.54687-8.16407q0-4.17968-1.32812-6.30859-1.30859-2.12891-3.90625-2.12891-2.61719 0-3.96484 2.14844-1.34766 2.12891-1.34766 6.28906 0 4.14063 1.34766 6.28907 1.34765 2.14843 3.96484 2.14843 2.59766 0 3.90625-2.1289 1.32812-2.12891 1.32812-6.3086z"
       id="path272" />
    <path
       d="m199.99219 193.4375h3.125q2.94922 4.60937 4.39453 9.02344 1.44531 4.41406 1.44531 8.76953 0 4.39453-1.44531 8.80859-1.44531 4.41406-4.39453 9.02344h-3.125q2.59765-4.53125 3.86718-8.96484 1.28907-4.4336 1.28907-8.86719 0-4.45313-1.28907-8.88672-1.26953-4.43359-3.86718-8.90625z"
       id="path274" />
  </g>
  <path
     d="m.00001194 168.59012h82.17270706v17.30494h-82.17270706z"
     stroke="#808080"
     stroke-width=".698012"
     id="PaddleL" />
  <g
     fill="#808080"
     transform="matrix(.26458332 0 0 .26458254 4.090655 120.85946)"
     id="g300">
    <path
       d="m8.3320313 197.87109v10.95703h4.5703127q2.734375 0 4.257812-1.44531 1.542969-1.44531 1.542969-4.04297 0-2.59765-1.523438-4.02343-1.523437-1.44532-4.277343-1.44532zm-3.9453126-3.24218h8.5156253q4.882812 0 7.402343 2.22656 2.519532 2.20703 2.519532 6.48437 0 4.31641-2.519532 6.52344-2.5 2.20703-7.402343 2.20703h-4.5703127v11.71875h-3.9453126z"
       id="path280" />
    <path
       d="m28.820312 194.62891h3.964844v25.83984h14.082031v3.32031h-18.046875z"
       id="path282" />
    <path
       d="m90.070312 193.4375q-2.597656 4.45312-3.886718 8.88672-1.269532 4.41406-1.269532 8.90625 0 4.47265 1.269532 8.90625 1.289062 4.43359 3.886718 8.92578h-3.125q-2.949218-4.64844-4.394531-9.04297-1.445312-4.41406-1.445312-8.78906 0-4.35547 1.445312-8.76953 1.445313-4.41407 4.394531-9.02344z"
       id="path284" />
    <path
       d="m104.66016 197.87109v10.95703h4.57031q2.73437 0 4.25781-1.44531 1.54297-1.44531 1.54297-4.04297 0-2.59765-1.52344-4.02343-1.52343-1.44532-4.27734-1.44532zm-3.94532-3.24218h8.51563q4.88281 0 7.40234 2.22656 2.51953 2.20703 2.51953 6.48437 0 4.31641-2.51953 6.52344-2.5 2.20703-7.40234 2.20703h-4.57031v11.71875h-3.94532z"
       id="path286" />
    <path
       d="m134.66016 212.79297h-1.19141q-3.14453 0-4.74609 1.11328-1.58203 1.09375-1.58203 3.28125 0 1.97266 1.1914 3.06641 1.19141 1.09375 3.30078 1.09375 2.96875 0 4.66797-2.05079 1.69922-2.07031 1.71875-5.70312v-.80078zm6.97265-1.48438v12.48047h-3.61328v-3.24219q-1.15234 1.95313-2.91016 2.89063-1.73828.91797-4.23828.91797-3.33984 0-5.33203-1.875-1.99218-1.89453-1.99218-5.0586 0-3.65234 2.4414-5.54687 2.46094-1.89453 7.20703-1.89453h4.82422v-.56641q-.01953-2.61719-1.32812-3.78906-1.3086-1.19141-4.17969-1.19141-1.83594 0-3.71094.52735-1.875.52734-3.65234 1.54297v-3.59375q1.99219-.76172 3.80859-1.13282 1.83594-.39062 3.55469-.39062 2.71484 0 4.6289.80078 1.9336.80078 3.125 2.40234.74219.97657 1.05469 2.42188.3125 1.42578.3125 4.29687z"
       id="path288" />
    <path
       d="m161.78906 204.70703v-11.30859h3.59375v30.39062h-3.59375v-2.7539q-.89844 1.62109-2.40234 2.48046-1.48438.83985-3.4375.83985-3.96485 0-6.25-3.06641-2.26563-3.08594-2.26563-8.49609 0-5.33203 2.28516-8.35938 2.28516-3.04687 6.23047-3.04687 1.97265 0 3.47656.85937 1.50391.83985 2.36328 2.46094zm-10.5664 8.16406q0 4.17969 1.32812 6.3086 1.32813 2.1289 3.92578 2.1289 2.59766 0 3.94531-2.14843 1.36719-2.14844 1.36719-6.28907 0-4.16015-1.36719-6.28906-1.34765-2.14844-3.94531-2.14844-2.59765 0-3.92578 2.12891-1.32812 2.12891-1.32812 6.30859z"
       id="path290" />
    <path
       d="m185.87109 204.70703v-11.30859h3.59375v30.39062h-3.59375v-2.7539q-.89843 1.62109-2.40234 2.48046-1.48438.83985-3.4375.83985-3.96484 0-6.25-3.06641-2.26563-3.08594-2.26563-8.49609 0-5.33203 2.28516-8.35938 2.28516-3.04687 6.23047-3.04687 1.97266 0 3.47656.85937 1.50391.83985 2.36328 2.46094zm-10.5664 8.16406q0 4.17969 1.32812 6.3086 1.32813 2.1289 3.92578 2.1289 2.59766 0 3.94532-2.14843 1.36718-2.14844 1.36718-6.28907 0-4.16015-1.36718-6.28906-1.34766-2.14844-3.94532-2.14844-2.59765 0-3.92578 2.12891-1.32812 2.12891-1.32812 6.30859z"
       id="path292" />
    <path
       d="m205.67578 215.85937q0 2.42188.87891 3.65235.89843 1.23047 2.63672 1.23047h4.19921v3.04687h-4.55078q-3.22265 0-5-2.07031-1.75781-2.07031-1.75781-5.85938v-19.86328h-5.76172v-2.8125h9.35547z"
       id="path294" />
    <path
       d="m238.99609 211.95312v1.75782h-15.5664v.11718q0 3.57422 1.85547 5.52735 1.875 1.95312 5.27343 1.95312 1.71875 0 3.59375-.54687 1.875-.54688 4.00391-1.66016v3.57422q-2.05078.83984-3.96484 1.25-1.89454.42969-3.67188.42969-5.09766 0-7.96875-3.04688-2.87109-3.0664-2.87109-8.4375 0-5.23437 2.8125-8.35937 2.8125-3.125 7.5-3.125 4.17968 0 6.58203 2.83203 2.42187 2.83203 2.42187 7.73437zm-3.59375-1.05468q-.0781-3.16407-1.5039-4.80469-1.40625-1.66016-4.0625-1.66016-2.59766 0-4.27735 1.71875-1.67968 1.71875-1.99218 4.76563z"
       id="path296" />
    <path
       d="m248.15625 193.4375h3.125q2.94922 4.60937 4.39453 9.02344 1.44531 4.41406 1.44531 8.76953 0 4.39453-1.44531 8.80859-1.44531 4.41406-4.39453 9.02344h-3.125q2.59766-4.53125 3.86719-8.96484 1.28906-4.4336 1.28906-8.86719 0-4.45313-1.28906-8.88672-1.26953-4.43359-3.86719-8.90625z"
       id="path298" />
  </g>
  <path
     d="m188.76064 185.89505h82.1727v17.30494h-82.1727z"
     stroke="#808080"
     stroke-width=".698012"
     id="GripR" />
  <g
     fill="#808080"
     transform="matrix(.26458332 0 0 .26458254 192.85127 138.16439)"
     id="g320">
    <path
       d="m22.101562 221.38672q-1.582031 1.46484-3.574218 2.22656-1.972657.74219-4.277344.74219-5.546875 0-8.6328125-3.96485-3.0859375-3.98437-3.0859375-11.15234 0-7.14844 3.125-11.13281 3.125-4.00391 8.691406-4.00391 1.835938 0 3.515625.52735 1.679688.50781 3.242188 1.5625v4.04296q-1.582032-1.5039-3.242188-2.20703-1.660156-.72265-3.515625-.72265-3.847656 0-5.7812497 2.98828-1.9140626 2.96875-1.9140626 8.94531 0 6.07422 1.8554688 9.00391 1.8750005 2.91015 5.7421875 2.91015 1.308594 0 2.285156-.29297.996094-.3125 1.796875-.95703v-7.83203h-4.238281v-3.24219h8.007812z"
       id="path304" />
    <path
       d="m39.464844 210.01953q1.523437.39063 2.597656 1.48438 1.074219 1.07421 2.675781 4.3164l3.964844 7.96875h-4.238281l-3.476563-7.36328q-1.503906-3.14453-2.714844-4.04297-1.191406-.91797-3.125-.91797h-3.769531v12.32422h-3.964844v-29.16015h8.125q4.804688 0 7.363282 2.16796 2.558593 2.16797 2.558593 6.26954 0 2.89062-1.582031 4.72656-1.5625 1.8164-4.414062 2.22656zm-8.085938-12.14844v10.35157h4.316406q2.832032 0 4.21875-1.26954 1.386719-1.26953 1.386719-3.88671 0-2.51954-1.484375-3.84766-1.464844-1.34766-4.277344-1.34766z"
       id="path306" />
    <path
       d="m90.070312 193.4375q-2.597656 4.45312-3.886718 8.88672-1.269532 4.41406-1.269532 8.90625 0 4.47265 1.269532 8.90625 1.289062 4.43359 3.886718 8.92578h-3.125q-2.949218-4.64844-4.394531-9.04297-1.445312-4.41406-1.445312-8.78906 0-4.35547 1.445312-8.76953 1.445313-4.41407 4.394531-9.02344z"
       id="path308" />
    <path
       d="m118.42969 221.38672q-1.58203 1.46484-3.57422 2.22656-1.97266.74219-4.27734.74219-5.54688 0-8.63282-3.96485-3.085935-3.98437-3.085935-11.15234 0-7.14844 3.125005-11.13281 3.125-4.00391 8.6914-4.00391 1.83594 0 3.51563.52735 1.67968.50781 3.24218 1.5625v4.04296q-1.58203-1.5039-3.24218-2.20703-1.66016-.72265-3.51563-.72265-3.84765 0-5.78125 2.98828-1.91406 2.96875-1.91406 8.94531 0 6.07422 1.85547 9.00391 1.875 2.91015 5.74219 2.91015 1.30859 0 2.28515-.29297.9961-.3125 1.79688-.95703v-7.83203h-4.23828v-3.24219h8.00781z"
       id="path310" />
    <path
       d="m143.50781 206.42578q-1.15234-.89844-2.34375-1.30859-1.1914-.41016-2.61719-.41016-3.35937 0-5.13671 2.10938-1.77735 2.10937-1.77735 6.09375v10.8789h-3.61328v-21.875h3.61328v4.27735q.89844-2.32422 2.75391-3.55469 1.875-1.25 4.43359-1.25 1.32813 0 2.48047.33203 1.15234.33203 2.20703 1.03516z"
       id="path312" />
    <path
       d="m150.03125 201.91406h9.19922v19.08203h7.1289v2.79297h-17.85156v-2.79297h7.12891v-16.28906h-5.60547zm5.60547-8.51562h3.59375v4.55078h-3.59375z"
       id="path314" />
    <path
       d="m176.4375 221.03516v11.07421h-3.61328v-30.19531h3.61328v2.79297q.89844-1.62109 2.38281-2.46094 1.50391-.85937 3.45703-.85937 3.96485 0 6.21094 3.0664 2.26563 3.06641 2.26563 8.4961 0 5.33203-2.26563 8.3789-2.26562 3.02735-6.21094 3.02735-1.99218 0-3.49609-.83985-1.48438-.85937-2.34375-2.48046zm10.54687-8.16407q0-4.17968-1.32812-6.30859-1.30859-2.12891-3.90625-2.12891-2.61719 0-3.96484 2.14844-1.34766 2.12891-1.34766 6.28906 0 4.14063 1.34766 6.28907 1.34765 2.14843 3.96484 2.14843 2.59766 0 3.90625-2.1289 1.32812-2.12891 1.32812-6.3086z"
       id="path316" />
    <path
       d="m199.99219 193.4375h3.125q2.94922 4.60937 4.39453 9.02344 1.44531 4.41406 1.44531 8.76953 0 4.39453-1.44531 8.80859-1.44531 4.41406-4.39453 9.02344h-3.125q2.59765-4.53125 3.86718-8.96484 1.28907-4.4336 1.28907-8.86719 0-4.45313-1.28907-8.88672-1.26953-4.43359-3.86718-8.90625z"
       id="path318" />
  </g>
  <path
     d="m188.76064 168.5901h82.1727v17.30494h-82.1727z"
     stroke="#808080"
     stroke-width=".698012"
     id="PaddleR" />
  <g
     fill="#808080"
     transform="matrix(.26458332 0 0 .26458254 192.85127 120.85946)"
     id="g344">
    <path
       d="m8.3320313 197.87109v10.95703h4.5703127q2.734375 0 4.257812-1.44531 1.542969-1.44531 1.542969-4.04297 0-2.59765-1.523438-4.02343-1.523437-1.44532-4.277343-1.44532zm-3.9453126-3.24218h8.5156253q4.882812 0 7.402343 2.22656 2.519532 2.20703 2.519532 6.48437 0 4.31641-2.519532 6.52344-2.5 2.20703-7.402343 2.20703h-4.5703127v11.71875h-3.9453126z"
       id="path324" />
    <path
       d="m39.464844 210.01953q1.523437.39063 2.597656 1.48438 1.074219 1.07421 2.675781 4.3164l3.964844 7.96875h-4.238281l-3.476563-7.36328q-1.503906-3.14453-2.714844-4.04297-1.191406-.91797-3.125-.91797h-3.769531v12.32422h-3.964844v-29.16015h8.125q4.804688 0 7.363282 2.16796 2.558593 2.16797 2.558593 6.26954 0 2.89062-1.582031 4.72656-1.5625 1.8164-4.414062 2.22656zm-8.085938-12.14844v10.35157h4.316406q2.832032 0 4.21875-1.26954 1.386719-1.26953 1.386719-3.88671 0-2.51954-1.484375-3.84766-1.464844-1.34766-4.277344-1.34766z"
       id="path326" />
    <path
       d="m90.070312 193.4375q-2.597656 4.45312-3.886718 8.88672-1.269532 4.41406-1.269532 8.90625 0 4.47265 1.269532 8.90625 1.289062 4.43359 3.886718 8.92578h-3.125q-2.949218-4.64844-4.394531-9.04297-1.445312-4.41406-1.445312-8.78906 0-4.35547 1.445312-8.76953 1.445313-4.41407 4.394531-9.02344z"
       id="path328" />
    <path
       d="m104.66016 197.87109v10.95703h4.57031q2.73437 0 4.25781-1.44531 1.54297-1.44531 1.54297-4.04297 0-2.59765-1.52344-4.02343-1.52343-1.44532-4.27734-1.44532zm-3.94532-3.24218h8.51563q4.88281 0 7.40234 2.22656 2.51953 2.20703 2.51953 6.48437 0 4.31641-2.51953 6.52344-2.5 2.20703-7.40234 2.20703h-4.57031v11.71875h-3.94532z"
       id="path330" />
    <path
       d="m134.66016 212.79297h-1.19141q-3.14453 0-4.74609 1.11328-1.58203 1.09375-1.58203 3.28125 0 1.97266 1.1914 3.06641 1.19141 1.09375 3.30078 1.09375 2.96875 0 4.66797-2.05079 1.69922-2.07031 1.71875-5.70312v-.80078zm6.97265-1.48438v12.48047h-3.61328v-3.24219q-1.15234 1.95313-2.91016 2.89063-1.73828.91797-4.23828.91797-3.33984 0-5.33203-1.875-1.99218-1.89453-1.99218-5.0586 0-3.65234 2.4414-5.54687 2.46094-1.89453 7.20703-1.89453h4.82422v-.56641q-.01953-2.61719-1.32812-3.78906-1.3086-1.19141-4.17969-1.19141-1.83594 0-3.71094.52735-1.875.52734-3.65234 1.54297v-3.59375q1.99219-.76172 3.80859-1.13282 1.83594-.39062 3.55469-.39062 2.71484 0 4.6289.80078 1.9336.80078 3.125 2.40234.74219.97657 1.05469 2.42188.3125 1.42578.3125 4.29687z"
       id="path332" />
    <path
       d="m161.78906 204.70703v-11.30859h3.59375v30.39062h-3.59375v-2.7539q-.89844 1.62109-2.40234 2.48046-1.48438.83985-3.4375.83985-3.96485 0-6.25-3.06641-2.26563-3.08594-2.26563-8.49609 0-5.33203 2.28516-8.35938 2.28516-3.04687 6.23047-3.04687 1.97265 0 3.47656.85937 1.50391.83985 2.36328 2.46094zm-10.5664 8.16406q0 4.17969 1.32812 6.3086 1.32813 2.1289 3.92578 2.1289 2.59766 0 3.94531-2.14843 1.36719-2.14844 1.36719-6.28907 0-4.16015-1.36719-6.28906-1.34765-2.14844-3.94531-2.14844-2.59765 0-3.92578 2.12891-1.32812 2.12891-1.32812 6.30859z"
       id="path334" />
    <path
       d="m185.87109 204.70703v-11.30859h3.59375v30.39062h-3.59375v-2.7539q-.89843 1.62109-2.40234 2.48046-1.48438.83985-3.4375.83985-3.96484 0-6.25-3.06641-2.26563-3.08594-2.26563-8.49609 0-5.33203 2.28516-8.35938 2.28516-3.04687 6.23047-3.04687 1.97266 0 3.47656.85937 1.50391.83985 2.36328 2.46094zm-10.5664 8.16406q0 4.17969 1.32812 6.3086 1.32813 2.1289 3.92578 2.1289 2.59766 0 3.94532-2.14843 1.36718-2.14844 1.36718-6.28907 0-4.16015-1.36718-6.28906-1.34766-2.14844-3.94532-2.14844-2.59765 0-3.92578 2.12891-1.32812 2.12891-1.32812 6.30859z"
       id="path336" />
    <path
       d="m205.67578 215.85937q0 2.42188.87891 3.65235.89843 1.23047 2.63672 1.23047h4.19921v3.04687h-4.55078q-3.22265 0-5-2.07031-1.75781-2.07031-1.75781-5.85938v-19.86328h-5.76172v-2.8125h9.35547z"
       id="path338" />
    <path
       d="m238.99609 211.95312v1.75782h-15.5664v.11718q0 3.57422 1.85547 5.52735 1.875 1.95312 5.27343 1.95312 1.71875 0 3.59375-.54687 1.875-.54688 4.00391-1.66016v3.57422q-2.05078.83984-3.96484 1.25-1.89454.42969-3.67188.42969-5.09766 0-7.96875-3.04688-2.87109-3.0664-2.87109-8.4375 0-5.23437 2.8125-8.35937 2.8125-3.125 7.5-3.125 4.17968 0 6.58203 2.83203 2.42187 2.83203 2.42187 7.73437zm-3.59375-1.05468q-.0781-3.16407-1.5039-4.80469-1.40625-1.66016-4.0625-1.66016-2.59766 0-4.27735 1.71875-1.67968 1.71875-1.99218 4.76563z"
       id="path340" />
    <path
       d="m248.15625 193.4375h3.125q2.94922 4.60937 4.39453 9.02344 1.44531 4.41406 1.44531 8.76953 0 4.39453-1.44531 8.80859-1.44531 4.41406-4.39453 9.02344h-3.125q2.59766-4.53125 3.86719-8.96484 1.28906-4.4336 1.28906-8.86719 0-4.45313-1.28906-8.88672-1.26953-4.43359-3.86719-8.90625z"
       id="path342" />
  </g>
  <g
     fill="#189d01"
     transform="matrix(.16819038 0 0 .16819038 -16.049645 6.998076)"
     id="g72"
     style="fill:#00b422;fill-opacity:1">
    <path
       d="m829.31541 375.16542h5.82136v17.55008h15.85816v-17.55008h5.82135v42.81418h-5.82135v-20.38907h-15.85816v20.38907h-5.82136z"
       id="path64"
       style="fill:#00b422;fill-opacity:1" />
    <path
       d="m878.40977 389.56108q-4.01472 0-6.07944 3.12575-2.06472 3.12575-2.06472 9.26254 0 6.10812 2.06472 9.26255 2.06472 3.12575 6.07944 3.12575 4.0434 0 6.10812-3.12575 2.06472-3.15443 2.06472-9.26255 0-6.13679-2.06472-9.26254-2.06472-3.12575-6.10812-3.12575zm0-4.47356q6.68165 0 10.20888 4.33017 3.55589 4.33017 3.55589 12.53168 0 8.23019-3.52722 12.56036-3.52722 4.30149-10.23755 4.30149-6.68165 0-10.20887-4.30149-3.52722-4.33017-3.52722-12.56036 0-8.20151 3.52722-12.53168 3.52722-4.33017 10.20887-4.33017z"
       id="path66"
       style="fill:#00b422;fill-opacity:1" />
    <path
       d="m915.48863 389.13093q.975-2.06472 2.46619-3.03972 1.51986-1.00369 3.64193-1.00369 3.87134 0 5.44855 3.01105 1.60589 2.98237 1.60589 11.26991v18.61112h-4.81767v-18.38171q0-6.79636-.77427-8.43092-.74559-1.66325-2.75295-1.66325-2.29413 0-3.15443 1.77795-.83162 1.74928-.83162 8.31622v18.38171h-4.81767v-18.38171q0-6.88239-.83162-8.48828-.80295-1.60589-2.92502-1.60589-2.09339 0-2.92501 1.77795-.80294 1.74928-.80294 8.31622v18.38171h-4.789v-32.11781h4.789v2.75296q.94632-1.7206 2.35148-2.60957 1.43383-.91766 3.24045-.91766 2.17943 0 3.61326 1.00369 1.4625 1.00368 2.26545 3.03972z"
       id="path68"
       style="fill:#00b422;fill-opacity:1" />
    <path
       d="m963.34989 400.60157v2.5809h-22.85526v.17205q0 5.24782 2.72428 8.11549 2.75296 2.86766 7.74269 2.86766 2.52354 0 5.27649-.80295 2.75296-.80294 5.87871-2.43751v5.24782q-3.01105 1.23309-5.82135 1.8353-2.78163.63089-5.39121.63089-7.48459 0-11.70005-4.47355-4.21546-4.50223-4.21546-12.3883 0-7.68533 4.12943-12.27359 4.12943-4.58826 11.01182-4.58826 6.13679 0 9.66401 4.15811 3.5559 4.15811 3.5559 11.35594zm-5.27649-1.54854q-.11471-4.64561-2.2081-7.05444-2.06472-2.43751-5.96474-2.43751-3.81399 0-6.28018 2.52354-2.46618 2.52354-2.92501 6.99709z"
       id="path70"
       style="fill:#00b422;fill-opacity:1" />
  </g>
</svg>
